<?xml version="1.0" encoding="UTF-8" standalone="no"?>
<!DOCTYPE svg PUBLIC "-//W3C//DTD SVG 1.1//EN" "http://www.w3.org/Graphics/SVG/1.1/DTD/svg11.dtd">
<svg width="100%" height="100%" viewBox="0 0 48 48" version="1.1" xmlns="http://www.w3.org/2000/svg" xmlns:xlink="http://www.w3.org/1999/xlink" xml:space="preserve" xmlns:serif="http://www.serif.com/" style="fill-rule:evenodd;clip-rule:evenodd;stroke-linejoin:round;stroke-miterlimit:2;">
    <path d="M24,4C18.5,4 14,8.5 14,14L14,18L18,18L18,14C18,10.7 20.7,8 24,8C27.3,8 30,10.7 30,14L30,18L34,18L34,14C34,8.5 29.5,4 24,4Z" style="fill:rgb(66,66,66);fill-rule:nonzero;"/>
    <path d="M36,44L12,44C9.8,44 8,42.2 8,40L8,22C8,19.8 9.8,18 12,18L36,18C38.2,18 40,19.8 40,22L40,40C40,42.2 38.2,44 36,44Z" style="fill:rgb(251,140,0);fill-rule:nonzero;"/>
    <circle cx="24" cy="31" r="3" style="fill:rgb(199,110,0);"/>
</svg>
