<?xml version="1.0" encoding="UTF-8" standalone="no"?>
<!DOCTYPE svg PUBLIC "-//W3C//DTD SVG 1.1//EN" "http://www.w3.org/Graphics/SVG/1.1/DTD/svg11.dtd">
<svg width="100%" height="100%" viewBox="0 0 36 36" version="1.1" xmlns="http://www.w3.org/2000/svg" xmlns:xlink="http://www.w3.org/1999/xlink" xml:space="preserve" xmlns:serif="http://www.serif.com/" style="fill-rule:evenodd;clip-rule:evenodd;stroke-linejoin:round;stroke-miterlimit:2;">
    <path d="M18,0C13.388,0 9.517,3.126 8.361,7.371L12.216,8.423C12.91,5.876 15.233,4 18,4C21.313,4 24,6.687 24,10L24,20L28,20L28,10C28,4.478 23.523,0 18,0Z" style="fill:rgb(170,184,194);fill-rule:nonzero;"/>
    <path d="M31,32C31,34.209 29.209,36 27,36L9,36C6.791,36 5,34.209 5,32L5,20C5,17.791 6.791,16 9,16L27,16C29.209,16 31,17.791 31,20L31,32Z" style="fill:rgb(95,233,51);fill-rule:nonzero;"/>
</svg>
